<?xml version="1.0" encoding="utf-8"?>
<!-- Generator: Adobe Illustrator 18.0.0, SVG Export Plug-In . SVG Version: 6.00 Build 0)  -->
<!DOCTYPE svg PUBLIC "-//W3C//DTD SVG 1.1//EN" "http://www.w3.org/Graphics/SVG/1.1/DTD/svg11.dtd">
<svg version="1.1" id="Layer_1" xmlns="http://www.w3.org/2000/svg" xmlns:xlink="http://www.w3.org/1999/xlink" x="0px" y="0px"
	 viewBox="0 0 1000 800" enable-background="new 0 0 1000 800" xml:space="preserve">
<g>
	<polygon opacity="0.85" fill="#EF3F67" enable-background="new    " points="723.8,8.6 498.8,8.6 273.9,8.6 161.4,203.4 
		386.4,203.4 611.3,203.4 836.2,203.4 	"/>
	<polygon opacity="0.85" fill="#703766" enable-background="new    " points="273.9,398.2 273.9,398.2 386.4,203.4 386.4,203.4 
		273.9,8.6 161.4,203.4 161.4,203.4 49,398.2 49,398.2 161.4,593 161.4,593 273.9,787.8 386.4,593 386.4,593 	"/>
	<polygon opacity="0.85" fill="#5F5DA9" enable-background="new    " points="949,398.2 723.8,398.2 611.3,593 606.9,593 386.6,593 
		161.7,593 274.2,787.8 498.8,787.8 499.1,787.8 618.6,787.8 723.8,787.8 724,787.8 836.5,593 836.5,593 	"/>
</g>
</svg>
